<svg width="36" height="36" viewBox="0 0 36 36" fill="none" xmlns="http://www.w3.org/2000/svg">
<path fill-rule="evenodd" clip-rule="evenodd" d="M18 18C20.8095 18 23.355 18.93 25.2225 20.2305C26.997 21.468 28.5 23.307 28.5 25.2855C28.5 26.3715 28.0365 27.2715 27.306 27.9405C26.619 28.572 25.722 28.9815 24.798 29.2605C22.9515 29.82 20.52 30 18 30C15.48 30 13.0485 29.82 11.202 29.2605C10.278 28.9815 9.381 28.572 8.6925 27.9405C7.965 27.273 7.5 26.373 7.5 25.287C7.5 23.3085 9.003 21.4695 10.7775 20.232C12.645 18.93 15.1905 18 18 18ZM18 21C15.84 21 13.8855 21.72 12.495 22.6905C11.0115 23.7255 10.5 24.7785 10.5 25.2855C10.5 25.7415 11.028 26.0265 11.508 26.2065L11.8155 26.3115L12.0705 26.3895C13.4805 26.8155 15.5505 27 18 27C20.262 27 22.1985 26.8425 23.592 26.484L24.048 26.3535L24.333 26.2635C24.8475 26.088 25.5 25.7925 25.5 25.2855C25.5 24.7785 24.9885 23.7255 23.505 22.6905C22.116 21.7215 20.16 21 18 21ZM28.5 19.5C30.066 19.5 31.488 20.0175 32.5395 20.7495C33.4995 21.42 34.5 22.5345 34.5 23.8935C34.5 25.896 32.5545 26.613 30.8055 26.8635L30.3555 26.919L29.922 26.9565C29.853 26.961 29.784 26.965 29.715 26.9685C29.898 26.451 30 25.8885 30 25.2855C29.9994 24.8367 29.9455 24.3896 29.8395 23.9535C30.4185 23.9085 30.894 23.8335 31.248 23.727C31.404 23.679 31.263 23.532 31.098 23.4045L30.9375 23.2875L30.8235 23.211C30.3733 22.9036 29.8657 22.6903 29.331 22.584C28.761 21.444 27.885 20.457 26.952 19.6695C27.4603 19.557 27.9794 19.5001 28.5 19.5ZM7.5 19.5C8.0355 19.5 8.5545 19.56 9.048 19.6695C8.115 20.457 7.239 21.444 6.669 22.584C6.13439 22.6905 5.62675 22.9037 5.1765 23.211L4.9845 23.343C4.794 23.481 4.5705 23.673 4.752 23.727C5.106 23.8335 5.5815 23.91 6.162 23.9535C6.05476 24.3894 6.00037 24.8366 6 25.2855C6 25.8885 6.102 26.451 6.285 26.9685L5.865 26.9385L5.421 26.8935C3.618 26.673 1.5 25.983 1.5 23.8935C1.5 22.536 2.499 21.42 3.4605 20.7495C4.6498 19.9344 6.05817 19.4987 7.5 19.5ZM27.75 10.5C28.7446 10.5 29.6984 10.8951 30.4017 11.5983C31.1049 12.3016 31.5 13.2554 31.5 14.25C31.5 15.2446 31.1049 16.1984 30.4017 16.9017C29.6984 17.6049 28.7446 18 27.75 18C26.7554 18 25.8016 17.6049 25.0983 16.9017C24.3951 16.1984 24 15.2446 24 14.25C24 13.2554 24.3951 12.3016 25.0983 11.5983C25.8016 10.8951 26.7554 10.5 27.75 10.5ZM8.25 10.5C9.24456 10.5 10.1984 10.8951 10.9017 11.5983C11.6049 12.3016 12 13.2554 12 14.25C12 15.2446 11.6049 16.1984 10.9017 16.9017C10.1984 17.6049 9.24456 18 8.25 18C7.25544 18 6.30161 17.6049 5.59835 16.9017C4.89509 16.1984 4.5 15.2446 4.5 14.25C4.5 13.2554 4.89509 12.3016 5.59835 11.5983C6.30161 10.8951 7.25544 10.5 8.25 10.5ZM18 4.5C19.5913 4.5 21.1174 5.13214 22.2426 6.25736C23.3679 7.38258 24 8.9087 24 10.5C24 12.0913 23.3679 13.6174 22.2426 14.7426C21.1174 15.8679 19.5913 16.5 18 16.5C16.4087 16.5 14.8826 15.8679 13.7574 14.7426C12.6321 13.6174 12 12.0913 12 10.5C12 8.9087 12.6321 7.38258 13.7574 6.25736C14.8826 5.13214 16.4087 4.5 18 4.5ZM27.75 13.5C27.5511 13.5 27.3603 13.579 27.2197 13.7197C27.079 13.8603 27 14.0511 27 14.25C27 14.4489 27.079 14.6397 27.2197 14.7803C27.3603 14.921 27.5511 15 27.75 15C27.9489 15 28.1397 14.921 28.2803 14.7803C28.421 14.6397 28.5 14.4489 28.5 14.25C28.5 14.0511 28.421 13.8603 28.2803 13.7197C28.1397 13.579 27.9489 13.5 27.75 13.5ZM8.25 13.5C8.05109 13.5 7.86032 13.579 7.71967 13.7197C7.57902 13.8603 7.5 14.0511 7.5 14.25C7.5 14.4489 7.57902 14.6397 7.71967 14.7803C7.86032 14.921 8.05109 15 8.25 15C8.44891 15 8.63968 14.921 8.78033 14.7803C8.92098 14.6397 9 14.4489 9 14.25C9 14.0511 8.92098 13.8603 8.78033 13.7197C8.63968 13.579 8.44891 13.5 8.25 13.5ZM18 7.5C17.2044 7.5 16.4413 7.81607 15.8787 8.37868C15.3161 8.94129 15 9.70435 15 10.5C15 11.2956 15.3161 12.0587 15.8787 12.6213C16.4413 13.1839 17.2044 13.5 18 13.5C18.7956 13.5 19.5587 13.1839 20.1213 12.6213C20.6839 12.0587 21 11.2956 21 10.5C21 9.70435 20.6839 8.94129 20.1213 8.37868C19.5587 7.81607 18.7956 7.5 18 7.5Z" fill="black"/>
</svg>
