<svg width="60" height="29" viewBox="0 0 60 29" fill="none" xmlns="http://www.w3.org/2000/svg">
<path d="M17.8728 1H10.491C10.0715 1 9.66913 1.16666 9.37248 1.4633C9.07584 1.75995 8.90918 2.16229 8.90918 2.58182V25.7818C8.90918 25.9895 8.95009 26.1952 9.02959 26.3872C9.10908 26.5791 9.2256 26.7534 9.37248 26.9003C9.51937 27.0472 9.69375 27.1637 9.88566 27.2432C10.0776 27.3227 10.2833 27.3636 10.491 27.3636H17.8728C18.0805 27.3636 18.2862 27.3227 18.4782 27.2432C18.6701 27.1637 18.8444 27.0472 18.9913 26.9003C19.1382 26.7534 19.2547 26.5791 19.3342 26.3872C19.4137 26.1952 19.4546 25.9895 19.4546 25.7818V2.58182C19.4546 2.16229 19.288 1.75995 18.9913 1.4633C18.6947 1.16666 18.2923 1 17.8728 1ZM49.5092 1H42.1274C41.7078 1 41.3055 1.16666 41.0088 1.4633C40.7122 1.75995 40.5455 2.16229 40.5455 2.58182V25.7818C40.5455 25.9895 40.5865 26.1952 40.666 26.3872C40.7454 26.5791 40.862 26.7534 41.0088 26.9003C41.1557 27.0472 41.3301 27.1637 41.522 27.2432C41.7139 27.3227 41.9196 27.3636 42.1274 27.3636H49.5092C49.7169 27.3636 49.9226 27.3227 50.1145 27.2432C50.3064 27.1637 50.4808 27.0472 50.6277 26.9003C50.7746 26.7534 50.8911 26.5791 50.9706 26.3872C51.0501 26.1952 51.091 25.9895 51.091 25.7818V2.58182C51.091 2.16229 50.9243 1.75995 50.6277 1.4633C50.331 1.16666 49.9287 1 49.5092 1Z" stroke="black" stroke-width="2" stroke-linecap="round" stroke-linejoin="round"/>
<path d="M19.4545 14.1818H40.5455M1 20.5091V7.85455C1 7.43503 1.16666 7.03269 1.4633 6.73604C1.75995 6.43939 2.16229 6.27274 2.58182 6.27274H7.32727C7.7468 6.27274 8.14914 6.43939 8.44579 6.73604C8.74244 7.03269 8.90909 7.43503 8.90909 7.85455V20.5091C8.90909 20.9286 8.74244 21.331 8.44579 21.6276C8.14914 21.9243 7.7468 22.0909 7.32727 22.0909H2.58182C2.16229 22.0909 1.75995 21.9243 1.4633 21.6276C1.16666 21.331 1 20.9286 1 20.5091ZM59 20.5091V7.85455C59 7.43503 58.8333 7.03269 58.5367 6.73604C58.24 6.43939 57.8377 6.27274 57.4182 6.27274H52.6727C52.2532 6.27274 51.8509 6.43939 51.5542 6.73604C51.2576 7.03269 51.0909 7.43503 51.0909 7.85455V20.5091C51.0909 20.9286 51.2576 21.331 51.5542 21.6276C51.8509 21.9243 52.2532 22.0909 52.6727 22.0909H57.4182C57.8377 22.0909 58.24 21.9243 58.5367 21.6276C58.8333 21.331 59 20.9286 59 20.5091Z" stroke="black" stroke-width="2" stroke-linecap="round" stroke-linejoin="round"/>
</svg>
