<svg width="49" height="27" viewBox="0 0 49 27" fill="none" xmlns="http://www.w3.org/2000/svg">
<path d="M19.1214 27C15.4632 27 12.3365 25.6903 9.74132 23.0708C7.14798 20.4513 5.85132 17.2962 5.85132 13.6056C5.85132 12.9731 5.89931 12.3415 5.99529 11.7109C6.09308 11.0784 6.20536 10.5638 6.33213 10.1672C6.14017 10.2586 5.93734 10.3097 5.72364 10.3207C5.51175 10.3317 5.31888 10.3372 5.14503 10.3372C3.67812 10.3372 2.45389 9.83721 1.47234 8.83731C0.490779 7.83924 0 6.61633 0 5.16858C0 3.72266 0.47448 2.49975 1.42344 1.49985C2.3724 0.499949 3.57128 0 5.02007 0C6.26965 0 7.3644 0.370163 8.3043 1.11049C9.2424 1.85082 9.82101 2.77851 10.0401 3.89357C11.1865 2.73281 12.5737 1.82888 14.2018 1.18178C15.8299 0.53468 17.4688 0.211129 19.1186 0.211129H49V5.69503H32.3887V13.6056C32.3887 17.3255 31.0984 20.4879 28.5177 23.0927C25.9388 25.6976 22.8058 27 19.1186 27M5.11786 7.91053C5.88753 7.91053 6.53315 7.64822 7.05472 7.12359C7.57628 6.59896 7.83616 5.94729 7.83435 5.16858C7.83435 4.39169 7.57447 3.74094 7.05472 3.21631C6.53496 2.69168 5.88934 2.42846 5.11786 2.42663C4.34819 2.42663 3.70348 2.68986 3.18372 3.21631C2.66397 3.74277 2.40319 4.39352 2.40138 5.16858C2.40138 5.94547 2.66216 6.59714 3.18372 7.12359C3.70529 7.65004 4.35 7.91236 5.11786 7.91053ZM19.1268 23.94C21.9574 23.94 24.3705 22.9309 26.3662 20.9129C28.3601 18.893 29.3571 16.4545 29.3571 13.5973C29.3571 10.7421 28.3574 8.3072 26.3581 6.29278C24.3587 4.27836 21.9438 3.27023 19.1132 3.26841C16.2826 3.26841 13.8695 4.27744 11.8738 6.29552C9.87806 8.31725 8.8802 10.7567 8.8802 13.6138C8.8802 16.4691 9.88077 18.9039 11.8819 20.9184C13.8831 22.9328 16.298 23.94 19.1268 23.94ZM19.1268 18.0338C20.3365 18.0338 21.3688 17.5997 22.2236 16.7314C23.0802 15.8613 23.5085 14.8166 23.5085 13.5973C23.5085 12.3781 23.0775 11.3361 22.2154 10.4715C21.3552 9.60871 20.3202 9.17731 19.1105 9.17731C17.9007 9.17731 16.8685 9.61145 16.0137 10.4797C15.1589 11.3499 14.7315 12.3945 14.7315 13.6138C14.7315 14.833 15.1616 15.875 16.0218 16.7396C16.8839 17.6024 17.917 18.0338 19.1268 18.0338Z" fill="black"/>
</svg>
