<svg width="32" height="32" viewBox="0 0 32 32" fill="none" xmlns="http://www.w3.org/2000/svg">
<g clip-path="url(#clip0_338_38)">
<path d="M13 28.65C13 28.844 13.14 29 13.312 29H17.688C17.86 29 18 28.844 18 28.65V26.35C18 26.156 17.86 26 17.688 26H13.312C13.14 26 13 26.156 13 26.35V28.65Z" fill="black"/>
<path d="M24 22.978L24.742 22.448L24.745 22.445C26.1798 21.4234 27.2989 20.0194 27.975 18.393C28.4537 17.2686 28.7069 16.061 28.72 14.839L28.77 12.079V12.06C28.7703 10.8631 28.3744 9.6998 27.6442 8.75154C26.9139 7.80327 25.8903 7.1234 24.733 6.818C24.2458 4.87061 23.1218 3.14191 21.5395 1.90658C19.9572 0.671257 18.0074 0.000185036 16 0L13 0C10.6131 0 8.32387 0.948212 6.63604 2.63604C4.94822 4.32387 4 6.61305 4 9V16C3.99883 17.2664 4.26552 18.5188 4.78255 19.6749C5.29958 20.8309 6.05527 21.8646 7 22.708V29.049C7 30.509 8.118 32 9.861 32H21.14C22.92 32 24 30.466 24 29.049V22.978ZM9 21.745C8.07341 21.1006 7.31658 20.2415 6.79416 19.2411C6.27174 18.2407 5.99926 17.1286 6 16V9C6 7.14348 6.7375 5.36301 8.05026 4.05025C9.36301 2.7375 11.1435 2 13 2H16C17.7972 2.0004 19.5255 2.69184 20.827 3.93121C22.1286 5.17057 22.9037 6.86295 22.992 8.658H23V13.5C23 13.6326 23.0527 13.7598 23.1465 13.8536C23.2402 13.9473 23.3674 14 23.5 14C23.6326 14 23.7598 13.9473 23.8536 13.8536C23.9473 13.7598 24 13.6326 24 13.5V8.702C24.7798 8.85296 25.4828 9.27066 25.9882 9.8834C26.4937 10.4961 26.7701 11.2657 26.77 12.06L26.72 14.81C26.7105 15.7764 26.51 16.7314 26.13 17.62C25.5973 18.9049 24.7136 20.0139 23.58 20.82L22 21.949V23H9V21.745ZM9 25H22V29.049C22 29.569 21.62 30 21.139 30H9.86C9.39 30 8.999 29.58 8.999 29.049L9 25Z" fill="black"/>
</g>
<defs>
<clipPath id="clip0_338_38">
<rect width="32" height="32" fill="white"/>
</clipPath>
</defs>
</svg>
