<svg width="15" height="16" viewBox="0 0 15 16" fill="none" xmlns="http://www.w3.org/2000/svg">
<path d="M7.96789 13.2477C7.67521 13.0928 7.32479 13.0928 7.03211 13.2477L3.78083 14.969C3.02154 15.3709 2.14228 14.6915 2.3397 13.8554L3.1338 10.4921C3.20686 10.1827 3.12842 9.85696 2.9225 9.6147L0.263121 6.48602C-0.264541 5.86525 0.131834 4.90781 0.943879 4.84167L4.53871 4.54888C4.90794 4.51881 5.23029 4.28708 5.37643 3.94666L6.58109 1.14051C6.92769 0.333148 8.07231 0.333146 8.4189 1.14051L9.62357 3.94666C9.7697 4.28708 10.0921 4.51881 10.4613 4.54888L14.0561 4.84167C14.8682 4.90781 15.2645 5.86524 14.7369 6.48602L12.0775 9.6147C11.8716 9.85696 11.7931 10.1827 11.8662 10.4921L12.6603 13.8554C12.8577 14.6915 11.9785 15.3709 11.2192 14.969L7.96789 13.2477Z" fill="#FFC738"/>
</svg>
