<svg width="46" height="46" viewBox="0 0 46 46" fill="none" xmlns="http://www.w3.org/2000/svg">
<path fill-rule="evenodd" clip-rule="evenodd" d="M11 0C4.92487 0 0 4.92487 0 11V35C0 41.0751 4.92487 46 11 46H35C41.0751 46 46 41.0751 46 35V11C46 4.92487 41.0751 0 35 0H11ZM27.9248 13C29.9577 13.3436 31.8874 13.9448 33.6993 14.7607H33.7287C36.8958 19.3415 38.4573 24.5092 37.8828 30.4785C35.467 32.2393 33.11 33.2986 30.7973 34C30.2228 33.2413 29.722 32.4254 29.2801 31.5808C30.105 31.2659 30.9152 30.8937 31.6664 30.4499C31.4602 30.3068 31.2687 30.1636 31.0772 30.0061C26.5254 32.0961 21.5317 32.0961 16.921 30.0061C16.8525 30.0573 16.7841 30.1103 16.7149 30.1639C16.5907 30.2601 16.4643 30.3579 16.3318 30.4499C17.083 30.8937 17.8785 31.2802 18.7182 31.5808C18.2762 32.4254 17.7754 33.2413 17.2009 34C14.8882 33.2986 12.546 32.2393 10.1154 30.4785C9.62931 25.3395 10.6163 20.1145 14.2695 14.7607C16.0814 13.9448 18.0111 13.3436 20.0439 13C20.2943 13.4294 20.589 14.0164 20.7952 14.4887C22.9017 14.1738 25.0376 14.1738 27.1883 14.4887C27.3798 14.0164 27.6744 13.4294 27.9248 13ZM16.8179 24.5522C16.8179 26.0839 17.9522 27.3293 19.3368 27.3293C20.751 27.3293 21.8558 26.0695 21.8558 24.5522C21.8705 23.0205 20.751 21.7751 19.3368 21.7751C17.9227 21.7751 16.8179 23.0205 16.8179 24.5522ZM26.113 24.5522C26.113 26.0839 27.2472 27.3293 28.6319 27.3293C30.0461 27.3293 31.1509 26.0695 31.1509 24.5522C31.1656 23.0205 30.0461 21.7751 28.6319 21.7751C27.2178 21.7751 26.113 23.0205 26.113 24.5522Z" fill="#186EAB"/>
</svg>
