<svg width="47" height="47" viewBox="0 0 47 47" fill="none" xmlns="http://www.w3.org/2000/svg">
<path fill-rule="evenodd" clip-rule="evenodd" d="M12 0C5.92487 0 1 4.92487 1 11V35C1 41.0751 5.92487 46 12 46H36C42.0751 46 47 41.0751 47 35V11C47 4.92487 42.0751 0 36 0H12ZM33.0882 32.4575L37.0491 13.7778C37.4007 12.1306 36.4576 11.4875 35.3794 11.8916L12.0947 20.8625C10.5066 21.4841 10.5301 22.3747 11.8247 22.7788L17.7779 24.6425L31.606 15.935C32.2557 15.5009 32.8482 15.7419 32.3616 16.175L21.1763 26.2822L20.7422 32.4284C21.3638 32.4284 21.6329 32.1594 21.9554 31.8369L24.8672 29.0356L30.9029 33.4831C32.0101 34.1038 32.7891 33.7756 33.0882 32.4575Z" fill="#186EAB"/>
</svg>
