<svg width="46" height="46" viewBox="0 0 46 46" fill="none" xmlns="http://www.w3.org/2000/svg">
<g clip-path="url(#clip0_0_25)">
<path fill-rule="evenodd" clip-rule="evenodd" d="M11 0C4.92487 0 0 4.92487 0 11V35C0 41.0751 4.92487 46 11 46H35C41.0751 46 46 41.0751 46 35V11C46 4.92487 41.0751 0 35 0H11ZM35.3192 16C36.3117 16 36.5202 16.4876 36.3117 17.1511C35.8944 18.9758 31.8957 24.3505 31.8957 24.3505C31.548 24.8813 31.4089 25.1467 31.8957 25.7438C32.0671 25.9728 32.4329 26.3147 32.8514 26.7058C33.2818 27.1081 33.768 27.5626 34.1559 27.9999C35.5657 29.5133 36.628 30.7899 36.924 31.6697C37.1945 32.5527 36.7257 33 35.788 33H32.5059C31.6269 33 31.1842 32.5302 30.2277 31.515C29.8223 31.0846 29.3245 30.5563 28.662 29.9242C26.7149 28.1327 25.8804 27.9004 25.3936 27.9004C24.733 27.9004 24.5354 28.079 24.5354 28.9737V31.7821C24.5354 32.5527 24.2773 33 22.191 33C18.714 33 14.8929 30.9857 12.1808 27.27C8.11268 21.829 7 17.7151 7 16.8857C7 16.4212 7.18756 16 8.12527 16H11.4073C12.2461 16 12.5616 16.3503 12.8762 17.2175C14.4813 21.679 17.1878 25.578 18.3004 25.578C18.7177 25.578 18.909 25.3947 18.909 24.3837V19.7721C18.8337 18.4594 18.3531 17.8917 17.9972 17.4712C17.7773 17.2115 17.605 17.008 17.605 16.7198C17.605 16.3696 17.9187 16 18.4402 16H23.5976C24.2931 16 24.5243 16.3549 24.5243 17.1511V23.3552C24.5243 24.0187 24.8373 24.2509 25.0459 24.2509C25.4631 24.2509 25.8109 24.0187 26.5758 23.2887C28.9401 20.7674 30.6093 16.8857 30.6093 16.8857C30.8179 16.4212 31.2027 16 32.0372 16H35.3192Z" fill="#186EAB"/>
</g>
<defs>
<clipPath id="clip0_0_25">
<rect width="46" height="46" fill="white"/>
</clipPath>
</defs>
</svg>
