<svg width="20" height="20" viewBox="0 0 20 20" fill="none" xmlns="http://www.w3.org/2000/svg">
<path d="M7.31844 11.2275C5.73103 11.3645 4.25824 11.9023 3.00174 12.7391C1.36653 13.8282 2.47071 15.9287 4.4354 15.9287H7.31844" stroke="#513833" stroke-width="2" stroke-linecap="round"/>
<path d="M10.4907 14.0765C10.4907 11.7781 11.1335 10.7932 11.4549 10.4648H17.24C17.5614 10.7932 18.2042 11.7781 18.2042 14.0765C18.2042 16.703 15.6719 17.6718 14.3863 18.0002C13.1007 17.6718 10.4907 16.703 10.4907 14.0765Z" stroke="#513833" stroke-width="2" stroke-linecap="round" stroke-linejoin="round"/>
<path d="M8.12665 8.68591C9.97292 8.68591 11.4696 7.18922 11.4696 5.34296C11.4696 3.49669 9.97292 2 8.12665 2C6.28039 2 4.78369 3.49669 4.78369 5.34296C4.78369 7.18922 6.28039 8.68591 8.12665 8.68591Z" stroke="#513833" stroke-width="2" stroke-linecap="round" stroke-linejoin="round"/>
</svg>
