<svg width="40" height="40" viewBox="0 0 40 40" fill="none" xmlns="http://www.w3.org/2000/svg">
<rect x="0.5" y="0.5" width="39" height="39" rx="4.5" stroke="#D7D4D4"/>
<g clip-path="url(#clip0_1_884)">
<g clip-path="url(#clip1_1_884)">
<path d="M19.5312 14.7691C20.3899 14.7691 21.0882 15.4881 21.0882 16.3723C21.0882 17.2539 20.3899 17.9729 19.5312 17.9729C18.6726 17.9729 17.9743 17.2539 17.9743 16.3723C17.9743 15.4881 18.6726 14.7691 19.5312 14.7691ZM19.5312 20.242C21.6054 20.242 23.2917 18.5056 23.2917 16.3723C23.2917 14.2364 21.6054 12.5 19.5312 12.5C17.4571 12.5 15.7735 14.2364 15.7735 16.3723C15.7735 18.5056 17.4571 20.242 19.5312 20.242ZM21.0519 23.4006C21.8175 23.2196 22.5545 22.9079 23.2347 22.4685C23.7493 22.1356 23.9046 21.4352 23.5812 20.9052C23.2554 20.3725 22.5778 20.2127 22.0605 20.5483C20.5218 21.5443 18.5407 21.5443 16.9993 20.5483C16.4847 20.2127 15.8045 20.3725 15.4812 20.9052C15.158 21.4352 15.3131 22.1356 15.8278 22.4685C16.508 22.9079 17.245 23.2196 18.0105 23.4006L15.908 25.5631C15.4786 26.0052 15.4786 26.7243 15.908 27.1664C16.1252 27.3875 16.4045 27.4993 16.6864 27.4993C16.9683 27.4993 17.2502 27.3875 17.4674 27.1664L19.5312 25.0411L21.5976 27.1664C22.027 27.6112 22.7227 27.6112 23.1546 27.1664C23.5839 26.7243 23.5839 26.0052 23.1546 25.5631L21.0519 23.4006Z" fill="#513833"/>
</g>
</g>
<defs>
<clipPath id="clip0_1_884">
<rect width="15" height="15" fill="white" transform="translate(12.5 12.5)"/>
</clipPath>
<clipPath id="clip1_1_884">
<rect width="15" height="15" fill="white" transform="translate(12.5 12.5)"/>
</clipPath>
</defs>
</svg>
