<svg width="40" height="40" viewBox="0 0 40 40" fill="none" xmlns="http://www.w3.org/2000/svg">
<rect x="0.5" y="0.5" width="39" height="39" rx="4.5" stroke="#D7D4D4"/>
<g clip-path="url(#clip0_1_886)">
<g clip-path="url(#clip1_1_886)">
<path d="M21.2766 13.4375C20.8557 13.4375 20.4608 13.6663 20.2075 13.9961C19.9541 14.326 19.8145 14.7282 19.7128 15.152C19.5512 15.8334 19.5013 16.5895 19.4894 17.271C18.3065 17.3553 17.2354 17.7309 16.3457 18.3112C15.9847 17.9861 15.5498 17.8055 15.133 17.8104C14.6582 17.8152 14.2074 18.0343 13.8723 18.4846C13.232 19.3442 13.3058 20.7505 14.0479 21.586C14.002 21.8437 13.9681 22.1085 13.9681 22.3758C13.9681 25.2076 16.6689 27.5 20 27.5C23.3311 27.5 26.032 25.2052 26.032 22.3758C26.032 22.1085 25.998 21.8437 25.9522 21.586C26.6942 20.7505 26.768 19.3442 26.1277 18.4846C25.7925 18.0343 25.3418 17.8152 24.867 17.8104C24.4501 17.8055 24.0153 17.9861 23.6543 18.3112C22.7686 17.7333 21.7035 17.3577 20.5266 17.271C20.5426 16.6425 20.5844 15.9899 20.7021 15.4987C20.7759 15.1905 20.8637 14.9666 20.9575 14.8438C21.0512 14.7209 21.119 14.6704 21.2766 14.6704C21.6177 14.6704 21.6616 14.7884 21.867 15.0749C21.9707 15.2194 22.0904 15.4 22.282 15.5758C22.4734 15.7515 22.7566 15.9033 23.0638 15.9033V14.6704C22.9781 14.6704 22.9621 14.668 22.9043 14.6126C22.8464 14.5572 22.7667 14.4296 22.6489 14.2658C22.4136 13.9359 21.9568 13.4375 21.2766 13.4375ZM24.5957 13.5531C23.8018 13.5531 23.1596 14.3284 23.1596 15.2868C23.1596 16.2452 23.8018 17.0206 24.5957 17.0206C25.3897 17.0206 26.032 16.2452 26.032 15.2868C26.032 14.3284 25.3897 13.5531 24.5957 13.5531ZM24.5957 14.1695C25.1064 14.1695 25.5213 14.6704 25.5213 15.2868C25.5213 15.9033 25.1064 16.4041 24.5957 16.4041C24.0852 16.4041 23.6702 15.9033 23.6702 15.2868C23.6702 14.6704 24.0852 14.1695 24.5957 14.1695ZM20 18.2342C22.8265 18.2342 25.2181 20.134 25.2181 22.3758C25.2181 24.6201 22.8265 26.5176 20 26.5176C17.1735 26.5176 14.7819 24.6201 14.7819 22.3758C14.7819 20.134 17.1735 18.2342 20 18.2342ZM15.1489 18.7928C15.2905 18.7952 15.4381 18.8337 15.5798 18.9084C15.0671 19.3779 14.6602 19.9173 14.383 20.5265C14.1915 20.0498 14.2433 19.455 14.4787 19.1396C14.6502 18.9084 14.8876 18.7904 15.1489 18.7928ZM24.8511 18.7928C25.1124 18.7904 25.3498 18.9084 25.5213 19.1396C25.7567 19.455 25.8086 20.0498 25.617 20.5265C25.3398 19.9173 24.9328 19.3779 24.4202 18.9084C24.5619 18.8337 24.7094 18.7952 24.8511 18.7928ZM17.9574 20.3339C17.4468 20.3339 17.0319 20.8348 17.0319 21.4512C17.0319 22.0677 17.4468 22.5685 17.9574 22.5685C18.4681 22.5685 18.883 22.0677 18.883 21.4512C18.883 20.8348 18.4681 20.3339 17.9574 20.3339ZM22.0425 20.3339C21.5319 20.3339 21.117 20.8348 21.117 21.4512C21.117 22.0677 21.5319 22.5685 22.0425 22.5685C22.5532 22.5685 22.9681 22.0677 22.9681 21.4512C22.9681 20.8348 22.5532 20.3339 22.0425 20.3339ZM17.4628 24.1288C17.7879 24.9403 18.7932 25.7277 20 25.7277C21.2068 25.7277 22.2281 24.9403 22.5532 24.1288C21.9628 24.5888 21.0313 24.8994 20 24.8994C18.9688 24.8994 18.0532 24.5888 17.4628 24.1288Z" fill="#513833"/>
</g>
</g>
<defs>
<clipPath id="clip0_1_886">
<rect width="15" height="15" fill="white" transform="translate(12.5 12.5)"/>
</clipPath>
<clipPath id="clip1_1_886">
<rect width="15" height="15" fill="white" transform="translate(12.5 12.5)"/>
</clipPath>
</defs>
</svg>
