<svg width="20" height="20" viewBox="0 0 20 20" fill="none" xmlns="http://www.w3.org/2000/svg">
<path d="M4.76917 13.0769C5.34041 13.0769 5.88825 12.85 6.29217 12.4461C6.6961 12.0422 6.92302 11.4943 6.92302 10.9231V9.07693C6.92302 8.50569 7.14995 7.95786 7.55388 7.55393C7.9578 7.15001 8.50564 6.92309 9.07687 6.92309C9.64811 6.92309 10.1959 6.69616 10.5999 6.29224C11.0038 5.88831 11.2307 5.34047 11.2307 4.76924V2.09408C10.8296 2.03214 10.4185 2 10 2C5.58172 2 2 5.58174 2 10C2 11.0903 2.21813 12.1297 2.61313 13.0769H4.76917Z" stroke="#513833" stroke-width="2" stroke-linecap="round" stroke-linejoin="round"/>
<path d="M17.9988 9.87648C17.3828 9.557 16.6997 9.3884 16.0057 9.38458H13.3842C12.813 9.38458 12.2651 9.6115 11.8612 10.0154C11.4573 10.4194 11.2303 10.9672 11.2303 11.5384C11.2303 12.1097 11.4573 12.6575 11.8612 13.0615C12.2651 13.4654 12.813 13.6923 13.3842 13.6923C13.7922 13.6923 14.1835 13.8544 14.4721 14.1429C14.7605 14.4314 14.9226 14.8227 14.9226 15.2308V16.3015H14.9288C16.7868 14.8462 17.9848 12.5871 17.9996 10.0476V9.95239C17.9995 9.92706 17.9992 9.90176 17.9988 9.87648Z" stroke="#513833" stroke-width="2" stroke-linecap="round" stroke-linejoin="round"/>
<path d="M10 18C14.4183 18 18 14.4182 18 10C18 5.58174 14.4183 2 10 2C5.58173 2 2 5.58174 2 10C2 14.4182 5.58173 18 10 18Z" stroke="#513833" stroke-width="2" stroke-linecap="round" stroke-linejoin="round"/>
</svg>
