<svg width="22" height="17" viewBox="0 0 22 17" fill="none" xmlns="http://www.w3.org/2000/svg">
<path d="M18.636 2.19087C17.1933 1.55976 15.6669 1.11132 14.0973 0.857422C13.9018 1.18787 13.6734 1.63233 13.5159 1.98592C11.8236 1.74802 10.1469 1.74802 8.48572 1.98592C8.32828 1.63241 8.0947 1.18787 7.89739 0.857422C6.32628 1.11144 4.79862 1.56101 3.35516 2.19416C0.482791 6.2522 -0.295889 10.2093 0.093408 14.1104C1.99856 15.4405 3.84484 16.2485 5.66001 16.7773C6.11112 16.1973 6.5099 15.5832 6.85222 14.9415C6.20049 14.7095 5.5722 14.4237 4.97483 14.0873C5.13203 13.9784 5.28554 13.8648 5.43511 13.7469C9.05497 15.3298 12.9882 15.3298 16.5649 13.7469C16.7151 13.8641 16.8685 13.9776 17.0251 14.0873C16.4267 14.4246 15.7973 14.711 15.1442 14.9432C15.4885 15.5875 15.8866 16.2022 16.3364 16.7789C18.1533 16.2502 20.0013 15.4422 21.9065 14.1104C22.3633 9.58811 21.1262 5.66722 18.636 2.19079V2.19087ZM7.34541 11.7113C6.25873 11.7113 5.36756 10.7629 5.36756 9.60795C5.36756 8.45303 6.23974 7.50297 7.34541 7.50297C8.45117 7.50297 9.34226 8.45134 9.32326 9.60795C9.32498 10.7629 8.45117 11.7113 7.34541 11.7113ZM14.6545 11.7113C13.5678 11.7113 12.6767 10.7629 12.6767 9.60795C12.6767 8.45303 13.5488 7.50297 14.6545 7.50297C15.7602 7.50297 16.6513 8.45134 16.6323 9.60795C16.6323 10.7629 15.7602 11.7113 14.6545 11.7113V11.7113Z" fill="#69FFFF"/>
</svg>
