<svg width="18" height="16" viewBox="0 0 18 16" fill="none" xmlns="http://www.w3.org/2000/svg">
<path d="M15.2222 9.75C16.2041 9.75 17 8.9665 17 8C17 7.0335 16.2041 6.25 15.2222 6.25M15.2222 9.75C14.2404 9.75 13.4444 8.9665 13.4444 8C13.4444 7.0335 14.2404 6.25 15.2222 6.25M15.2222 9.75V15M15.2222 6.25V1M9 11.5C8.01816 11.5 7.22222 12.2835 7.22222 13.25C7.22222 14.2165 8.01816 15 9 15C9.98184 15 10.7778 14.2165 10.7778 13.25C10.7778 12.2835 9.98184 11.5 9 11.5ZM9 11.5V1M2.77778 4.5C3.75962 4.5 4.55556 3.7165 4.55556 2.75C4.55556 1.7835 3.75962 1 2.77778 1C1.79594 1 1 1.7835 1 2.75C1 3.7165 1.79594 4.5 2.77778 4.5ZM2.77778 4.5V15" stroke="#7A7F9C" stroke-width="1.5" stroke-linecap="round"/>
</svg>
