<svg width="18" height="18" viewBox="0 0 18 18" fill="none" xmlns="http://www.w3.org/2000/svg">
<path d="M5.44444 12.5556L12.5556 5.44444M17 9C17 13.4183 13.4183 17 9 17C4.58172 17 1 13.4183 1 9C1 4.58172 4.58172 1 9 1C13.4183 1 17 4.58172 17 9ZM8.11111 6.33333C8.11111 7.31517 7.31517 8.11111 6.33333 8.11111C5.35149 8.11111 4.55556 7.31517 4.55556 6.33333C4.55556 5.35149 5.35149 4.55556 6.33333 4.55556C7.31517 4.55556 8.11111 5.35149 8.11111 6.33333ZM13.4444 11.6667C13.4444 12.6485 12.6485 13.4444 11.6667 13.4444C10.6848 13.4444 9.88889 12.6485 9.88889 11.6667C9.88889 10.6848 10.6848 9.88889 11.6667 9.88889C12.6485 9.88889 13.4444 10.6848 13.4444 11.6667Z" stroke="#7A7F9C" stroke-width="1.5" stroke-linecap="round" stroke-linejoin="round"/>
</svg>
