<svg width="6" height="5" viewBox="0 0 6 5" fill="none" xmlns="http://www.w3.org/2000/svg">
<path d="M2.27346 1.23607C2.50214 0.532249 3.49786 0.532249 3.72654 1.23607V1.23607C3.82881 1.55083 4.12213 1.76393 4.45309 1.76393V1.76393C5.19312 1.76393 5.50082 2.71091 4.90211 3.1459V3.1459C4.63436 3.34043 4.52233 3.68524 4.6246 4V4C4.85328 4.70382 4.04773 5.28909 3.44903 4.8541V4.8541C3.18128 4.65957 2.81872 4.65957 2.55097 4.8541V4.8541C1.95227 5.28909 1.14672 4.70382 1.3754 4V4C1.47767 3.68524 1.36564 3.34043 1.09789 3.1459V3.1459C0.499183 2.71091 0.806876 1.76393 1.54691 1.76393V1.76393C1.87787 1.76393 2.17119 1.55083 2.27346 1.23607V1.23607Z" fill="#8960FF"/>
</svg>
