<svg width="20" height="17" viewBox="0 0 20 17" fill="none" xmlns="http://www.w3.org/2000/svg">
<path d="M20 2.74015C19.2504 3.06592 18.4565 3.27953 17.644 3.37403C18.4968 2.87572 19.138 2.08549 19.448 1.151C18.64 1.61902 17.7587 1.94867 16.841 2.12619C16.4545 1.72338 15.9897 1.40314 15.4748 1.18501C14.9598 0.966878 14.4056 0.855424 13.846 0.857449C11.58 0.857449 9.743 2.65856 9.743 4.8776C9.743 5.19205 9.779 5.49953 9.849 5.79308C8.22358 5.71616 6.63212 5.30291 5.17617 4.57971C3.72022 3.85651 2.43176 2.83925 1.393 1.59282C1.02883 2.2042 0.837415 2.90214 0.839 3.61285C0.839697 4.27753 1.00683 4.93157 1.32529 5.51585C1.64375 6.10013 2.1035 6.59623 2.663 6.95933C2.01248 6.93843 1.37602 6.76561 0.805 6.45482V6.50457C0.805 8.45295 2.22 10.0779 4.095 10.4481C3.74261 10.5411 3.37958 10.5883 3.015 10.5884C2.75 10.5884 2.493 10.5635 2.242 10.5138C2.51008 11.3177 3.02311 12.0187 3.70982 12.5192C4.39653 13.0198 5.22284 13.2951 6.074 13.307C4.61407 14.426 2.82182 15.0305 0.979 15.0255C0.647 15.0255 0.321 15.0056 0 14.9698C1.88125 16.1546 4.06259 16.7821 6.289 16.7789C13.836 16.7789 17.962 10.6521 17.962 5.33932L17.948 4.81889C18.7529 4.25534 19.4481 3.551 20 2.74015V2.74015Z" fill="#837B99"/>
</svg>
