<?xml version="1.0" standalone="no"?>
<!DOCTYPE svg PUBLIC "-//W3C//DTD SVG 20010904//EN"
 "http://www.w3.org/TR/2001/REC-SVG-20010904/DTD/svg10.dtd">
<svg  version="1.0" xmlns="http://www.w3.org/2000/svg"
 width="900.000000pt" height="686.000000pt" viewBox="0 0 900.000000 686.000000"
 preserveAspectRatio="xMidYMid meet">

<g  transform="translate(0.000000,686.000000) scale(0.100000,-0.100000)"
fill="#000000" stroke="none">
<path fill="#2491ea" d="M4310 6434 c-19 -2 -84 -9 -145 -15 -313 -30 -664 -131 -970 -278
-333 -160 -594 -348 -860 -622 -471 -484 -751 -1076 -836 -1774 -19 -151 -16
-533 5 -690 91 -682 371 -1264 840 -1743 484 -495 1087 -794 1791 -888 157
-21 539 -24 690 -5 588 72 1086 275 1545 632 119 92 337 304 442 429 372 443
603 971 684 1565 25 179 25 579 0 755 -50 364 -147 676 -306 990 -451 888
-1305 1491 -2305 1625 -113 15 -499 28 -575 19z m1412 -1437 c74 -36 144 -107
177 -177 l26 -55 3 -1477 2 -1477 -62 24 c-35 13 -236 92 -448 177 l-385 153
-850 5 -850 5 -57 27 c-73 34 -142 103 -176 176 l-27 57 0 1165 0 1165 28 57
c40 82 130 162 210 187 60 20 90 20 1207 18 l1145 -2 57 -28z"/>
<path  fill="#2491ea" d="M3490 3000 c-26 -26 -34 -62 -23 -97 20 -60 255 -192 460 -257 198
-63 317 -80 568 -81 232 0 296 7 475 51 195 48 414 148 528 241 37 30 42 39
42 74 0 29 -7 47 -25 64 -36 37 -78 33 -150 -16 -377 -255 -964 -313 -1437
-143 -94 34 -229 102 -293 148 -59 42 -113 48 -145 16z"/>
</g>
</svg>
