<svg width="18" height="17" viewBox="0 0 18 17" fill="none" xmlns="http://www.w3.org/2000/svg">
<path d="M9.88889 11.9012H9V8.64803H8.11111M9 5.3949H9.00889M17 8.64803C17 9.60925 16.7931 10.5611 16.391 11.4491C15.989 12.3371 15.3997 13.144 14.6569 13.8237C13.914 14.5034 13.0321 15.0426 12.0615 15.4104C11.0909 15.7782 10.0506 15.9676 9 15.9676C7.94943 15.9676 6.90914 15.7782 5.93853 15.4104C4.96793 15.0426 4.08601 14.5034 3.34315 13.8237C2.60028 13.144 2.011 12.3371 1.60896 11.4491C1.20693 10.5611 1 9.60925 1 8.64803C1 6.70677 1.84285 4.84501 3.34315 3.47233C4.84344 2.09965 6.87827 1.32849 9 1.32849C11.1217 1.32849 13.1566 2.09965 14.6569 3.47233C16.1571 4.84501 17 6.70677 17 8.64803Z" stroke="#F4F4F5" stroke-width="1.5" stroke-linecap="round" stroke-linejoin="round"/>
</svg>
