<svg width="16" height="12" viewBox="0 0 16 12" fill="none" xmlns="http://www.w3.org/2000/svg">
<path d="M13.5535 1.00502C12.5042 0.529349 11.3941 0.191364 10.2526 0C10.1104 0.24906 9.9443 0.584047 9.82974 0.850547C8.59899 0.671245 7.37956 0.671245 6.17143 0.850547C6.05693 0.584107 5.88706 0.24906 5.74356 0C4.60093 0.191452 3.48991 0.530298 2.44012 1.0075C0.351121 4.06604 -0.215192 7.04853 0.0679331 9.98881C1.4535 10.9913 2.79624 11.6003 4.11637 11.9988C4.44445 11.5617 4.73447 11.0989 4.98343 10.6152C4.50945 10.4404 4.05251 10.2249 3.61806 9.97137C3.73239 9.88927 3.84403 9.8037 3.95281 9.7148C6.58543 10.9078 9.44593 10.9078 12.0472 9.7148C12.1564 9.80311 12.268 9.88866 12.3819 9.97137C11.9467 10.2256 11.4889 10.4414 11.014 10.6165C11.2644 11.1021 11.5539 11.5653 11.8811 12C13.2024 11.6016 14.5464 10.9926 15.932 9.98881C16.2642 6.58032 15.3645 3.62515 13.5535 1.00496V1.00502ZM5.34212 8.18059C4.55181 8.18059 3.90368 7.46575 3.90368 6.59528C3.90368 5.72481 4.53799 5.00875 5.34212 5.00875C6.14631 5.00875 6.79437 5.72354 6.78056 6.59528C6.78181 7.46575 6.14631 8.18059 5.34212 8.18059ZM10.6578 8.18059C9.86749 8.18059 9.21943 7.46575 9.21943 6.59528C9.21943 5.72481 9.85368 5.00875 10.6578 5.00875C11.462 5.00875 12.1101 5.72354 12.0962 6.59528C12.0962 7.46575 11.462 8.18059 10.6578 8.18059Z" fill="#F9FBFF"/>
</svg>
