<svg width="39" height="12" viewBox="0 0 39 12" fill="none" xmlns="http://www.w3.org/2000/svg">
<path d="M7.476 1.13V3.314H3.528V5.05H6.44V7.136H3.528V11H0.784V1.13H7.476ZM13.6157 1.13V11H10.8717V1.13H13.6157ZM22.4163 11L20.4563 7.36H20.1623V11H17.4183V1.13H21.7443C22.5376 1.13 23.2096 1.27 23.7603 1.55C24.311 1.82067 24.7263 2.19867 25.0063 2.684C25.2863 3.16 25.4263 3.69667 25.4263 4.294C25.4263 4.966 25.2396 5.55867 24.8663 6.072C24.5023 6.576 23.9656 6.93533 23.2563 7.15L25.4823 11H22.4163ZM20.1623 5.484H21.5203C21.8936 5.484 22.1736 5.39533 22.3603 5.218C22.547 5.04067 22.6403 4.784 22.6403 4.448C22.6403 4.13067 22.5423 3.88333 22.3463 3.706C22.1596 3.51933 21.8843 3.426 21.5203 3.426H20.1623V5.484ZM33.6462 11.098C32.7222 11.098 31.8728 10.8833 31.0982 10.454C30.3235 10.0153 29.7075 9.41333 29.2502 8.648C28.8022 7.87333 28.5782 7.00067 28.5782 6.03C28.5782 5.05933 28.8022 4.19133 29.2502 3.426C29.7075 2.65133 30.3235 2.04933 31.0982 1.62C31.8728 1.19067 32.7222 0.976 33.6462 0.976C34.5795 0.976 35.4288 1.19067 36.1942 1.62C36.9688 2.04933 37.5802 2.65133 38.0282 3.426C38.4762 4.19133 38.7002 5.05933 38.7002 6.03C38.7002 7.00067 38.4762 7.87333 38.0282 8.648C37.5802 9.41333 36.9688 10.0153 36.1942 10.454C35.4195 10.8833 34.5702 11.098 33.6462 11.098ZM33.6462 8.55C34.3462 8.55 34.8968 8.32133 35.2982 7.864C35.7088 7.40667 35.9142 6.79533 35.9142 6.03C35.9142 5.246 35.7088 4.63 35.2982 4.182C34.8968 3.72467 34.3462 3.496 33.6462 3.496C32.9368 3.496 32.3815 3.72467 31.9802 4.182C31.5788 4.63 31.3782 5.246 31.3782 6.03C31.3782 6.80467 31.5788 7.42067 31.9802 7.878C32.3815 8.326 32.9368 8.55 33.6462 8.55Z" fill="#FFBE5B"/>
</svg>
