<svg width="1312" height="1206" viewBox="0 0 1312 1206" fill="none" xmlns="http://www.w3.org/2000/svg">
<g opacity="0.4">
<path d="M676.826 131.317C676.821 130.778 676.084 130.628 675.868 131.122L675.633 131.661C675.554 131.842 675.377 131.959 675.18 131.961L674.591 131.968C674.053 131.974 673.903 132.71 674.396 132.926L674.936 133.161C675.116 133.24 675.233 133.417 675.236 133.614L675.242 134.203C675.248 134.742 675.984 134.891 676.2 134.398L676.436 133.858C676.515 133.678 676.692 133.561 676.889 133.558L677.477 133.552C678.016 133.546 678.166 132.81 677.672 132.594L677.133 132.358C676.952 132.279 676.835 132.102 676.833 131.905L676.826 131.317Z" fill="#9FBAFF"/>
<path d="M601.834 628.465C601.828 627.926 601.092 627.777 600.876 628.27L600.64 628.81C600.562 628.99 600.384 629.107 600.188 629.11L599.599 629.116C599.06 629.122 598.911 629.858 599.404 630.074L599.944 630.31C600.124 630.389 600.241 630.566 600.243 630.763L600.25 631.351C600.256 631.89 600.992 632.04 601.208 631.546L601.444 631.007C601.523 630.826 601.7 630.709 601.896 630.707L602.485 630.7C603.024 630.694 603.174 629.958 602.68 629.742L602.14 629.506C601.96 629.428 601.843 629.251 601.841 629.054L601.834 628.465Z" fill="#9FBAFF"/>
<path d="M601.834 1096.47C601.828 1095.93 601.092 1095.78 600.876 1096.27L600.64 1096.81C600.562 1096.99 600.384 1097.11 600.188 1097.11L599.599 1097.12C599.06 1097.12 598.911 1097.86 599.404 1098.07L599.944 1098.31C600.124 1098.39 600.241 1098.57 600.243 1098.76L600.25 1099.35C600.256 1099.89 600.992 1100.04 601.208 1099.55L601.444 1099.01C601.523 1098.83 601.7 1098.71 601.896 1098.71L602.485 1098.7C603.024 1098.69 603.174 1097.96 602.68 1097.74L602.14 1097.51C601.96 1097.43 601.843 1097.25 601.841 1097.05L601.834 1096.47Z" fill="#9FBAFF"/>
<path d="M1190.07 246.77C1190.07 246.232 1189.33 246.082 1189.12 246.576L1189.1 246.62C1189.02 246.8 1188.84 246.918 1188.64 246.92L1188.6 246.92C1188.06 246.926 1187.91 247.663 1188.4 247.879L1188.45 247.898C1188.63 247.977 1188.74 248.154 1188.74 248.351L1188.75 248.399C1188.75 248.938 1189.49 249.088 1189.7 248.594L1189.72 248.55C1189.8 248.369 1189.98 248.252 1190.18 248.25L1190.22 248.249C1190.76 248.243 1190.91 247.507 1190.42 247.291L1190.37 247.272C1190.19 247.193 1190.08 247.016 1190.07 246.819L1190.07 246.77Z" fill="#9FBAFF"/>
<path opacity="0.6" d="M957.703 615.832C957.697 615.293 956.961 615.143 956.745 615.637L956.725 615.682C956.647 615.862 956.47 615.979 956.273 615.981L956.224 615.982C955.685 615.988 955.536 616.724 956.029 616.94L956.074 616.96C956.254 617.038 956.372 617.215 956.374 617.412L956.374 617.461C956.38 618 957.117 618.149 957.332 617.656L957.352 617.611C957.431 617.431 957.608 617.313 957.805 617.311L957.853 617.311C958.392 617.305 958.542 616.568 958.048 616.353L958.003 616.333C957.823 616.254 957.706 616.077 957.704 615.88L957.703 615.832Z" fill="#9FBAFF"/>
<path opacity="0.6" d="M957.701 1083.83C957.695 1083.29 956.959 1083.14 956.743 1083.64L956.724 1083.68C956.645 1083.86 956.468 1083.98 956.271 1083.98L956.222 1083.98C955.684 1083.99 955.534 1084.72 956.027 1084.94L956.072 1084.96C956.252 1085.04 956.37 1085.22 956.372 1085.41L956.372 1085.46C956.378 1086 957.115 1086.15 957.33 1085.66L957.35 1085.61C957.429 1085.43 957.606 1085.31 957.803 1085.31L957.851 1085.31C958.39 1085.3 958.54 1084.57 958.046 1084.35L958.001 1084.33C957.821 1084.25 957.704 1084.08 957.702 1083.88L957.701 1083.83Z" fill="#9FBAFF"/>
<path opacity="0.7" d="M114.209 816.317C114.203 815.778 113.467 815.628 113.251 816.122L113.231 816.166C113.153 816.347 112.975 816.464 112.779 816.466L112.73 816.467C112.191 816.473 112.042 817.209 112.535 817.425L112.58 817.444C112.76 817.523 112.877 817.7 112.88 817.897L112.88 817.946C112.886 818.484 113.622 818.634 113.838 818.14L113.858 818.096C113.937 817.915 114.114 817.798 114.31 817.796L114.359 817.795C114.898 817.79 115.047 817.053 114.554 816.837L114.509 816.818C114.329 816.739 114.212 816.562 114.209 816.365L114.209 816.317Z" fill="#9FBAFF"/>
<path opacity="0.3" d="M541.259 372.432C541.254 371.993 540.654 371.871 540.478 372.273C540.414 372.42 540.269 372.515 540.109 372.517C539.67 372.522 539.548 373.122 539.951 373.298C540.097 373.362 540.193 373.506 540.195 373.667C540.2 374.105 540.8 374.227 540.975 373.825C541.039 373.678 541.184 373.583 541.344 373.581C541.783 373.576 541.905 372.976 541.503 372.8C541.356 372.736 541.26 372.592 541.259 372.432Z" fill="#9FBAFF"/>
<path opacity="0.6" d="M653.878 396.995C653.876 396.776 653.576 396.715 653.488 396.916C653.456 396.989 653.384 397.037 653.304 397.038C653.084 397.041 653.023 397.341 653.224 397.428C653.298 397.461 653.346 397.533 653.346 397.613C653.349 397.832 653.649 397.893 653.737 397.692C653.769 397.619 653.841 397.571 653.921 397.57C654.14 397.568 654.201 397.268 654 397.18C653.927 397.148 653.879 397.075 653.878 396.995Z" fill="#9FBAFF"/>
<path d="M1133.87 1015.48C1133.87 1015.15 1133.42 1015.06 1133.29 1015.36C1133.24 1015.47 1133.13 1015.54 1133.01 1015.54C1132.68 1015.54 1132.59 1015.99 1132.89 1016.13C1133 1016.17 1133.07 1016.28 1133.08 1016.4C1133.08 1016.73 1133.53 1016.82 1133.66 1016.52C1133.71 1016.41 1133.82 1016.34 1133.94 1016.34C1134.27 1016.34 1134.36 1015.89 1134.06 1015.75C1133.95 1015.71 1133.88 1015.6 1133.87 1015.48Z" fill="#9FBAFF"/>
<path d="M872.81 205.776C872.808 205.557 872.508 205.496 872.42 205.697C872.388 205.77 872.315 205.818 872.235 205.819C872.016 205.821 871.955 206.121 872.156 206.209C872.229 206.241 872.277 206.313 872.278 206.393C872.28 206.613 872.58 206.674 872.668 206.473C872.7 206.399 872.773 206.352 872.853 206.351C873.072 206.348 873.133 206.048 872.932 205.96C872.859 205.928 872.811 205.856 872.81 205.776Z" fill="#9FBAFF"/>
<path opacity="0.6" d="M326.566 162.992C326.563 162.773 326.263 162.712 326.176 162.913C326.143 162.987 326.071 163.034 325.991 163.035C325.772 163.038 325.711 163.338 325.912 163.425C325.985 163.458 326.033 163.53 326.034 163.61C326.036 163.829 326.336 163.89 326.424 163.689C326.456 163.616 326.528 163.568 326.609 163.567C326.828 163.565 326.889 163.265 326.688 163.177C326.614 163.145 326.567 163.073 326.566 162.992Z" fill="#9FBAFF"/>
<path d="M544.224 71.0921C544.222 70.8727 543.922 70.8117 543.834 71.0128C543.802 71.0862 543.729 71.134 543.649 71.1349C543.43 71.1373 543.369 71.4373 543.57 71.5251C543.643 71.5572 543.691 71.6294 543.692 71.7095C543.695 71.929 543.994 71.9899 544.082 71.7889C544.114 71.7154 544.187 71.6677 544.267 71.6668C544.486 71.6644 544.547 71.3644 544.346 71.2765C544.273 71.2444 544.225 71.1722 544.224 71.0921Z" fill="#9FBAFF"/>
<path d="M333.894 513.347C333.892 513.128 333.592 513.067 333.504 513.268C333.472 513.341 333.399 513.389 333.319 513.39C333.1 513.392 333.039 513.692 333.24 513.78C333.313 513.812 333.361 513.884 333.362 513.964C333.364 514.184 333.664 514.245 333.752 514.044C333.784 513.97 333.857 513.923 333.937 513.922C334.156 513.919 334.217 513.619 334.016 513.531C333.943 513.499 333.895 513.427 333.894 513.347Z" fill="#9FBAFF"/>
<path d="M275.31 607.668C275.308 607.449 275.008 607.388 274.92 607.589C274.888 607.662 274.815 607.71 274.735 607.711C274.516 607.713 274.455 608.013 274.656 608.101C274.729 608.133 274.777 608.205 274.778 608.285C274.78 608.505 275.08 608.566 275.168 608.365C275.2 608.291 275.273 608.244 275.353 608.243C275.572 608.24 275.633 607.94 275.432 607.852C275.359 607.82 275.311 607.748 275.31 607.668Z" fill="#9FBAFF"/>
<path d="M234.96 172.516C234.958 172.297 234.658 172.236 234.57 172.437C234.538 172.51 234.466 172.558 234.386 172.559C234.166 172.561 234.105 172.861 234.306 172.949C234.38 172.981 234.428 173.054 234.428 173.134C234.431 173.353 234.731 173.414 234.819 173.213C234.851 173.14 234.923 173.092 235.003 173.091C235.223 173.089 235.283 172.789 235.082 172.701C235.009 172.669 234.961 172.596 234.96 172.516Z" fill="#9FBAFF"/>
<path d="M1231.03 279.423C1231.02 279.203 1230.72 279.142 1230.64 279.343C1230.6 279.417 1230.53 279.464 1230.45 279.465C1230.23 279.468 1230.17 279.768 1230.37 279.856C1230.45 279.888 1230.49 279.96 1230.49 280.04C1230.5 280.259 1230.8 280.32 1230.89 280.119C1230.92 280.046 1230.99 279.998 1231.07 279.997C1231.29 279.995 1231.35 279.695 1231.15 279.607C1231.08 279.575 1231.03 279.503 1231.03 279.423Z" fill="#9FBAFF"/>
<path d="M294.413 151.512C294.408 151.073 293.808 150.951 293.632 151.353C293.568 151.5 293.424 151.596 293.264 151.597C292.825 151.602 292.703 152.202 293.105 152.378C293.252 152.442 293.347 152.586 293.349 152.747C293.354 153.186 293.954 153.308 294.13 152.905C294.194 152.759 294.338 152.663 294.498 152.661C294.937 152.656 295.059 152.056 294.657 151.881C294.51 151.816 294.415 151.672 294.413 151.512Z" fill="#9FBAFF"/>
<path d="M650.206 94.8902C650.201 94.4514 649.601 94.3294 649.425 94.7315C649.361 94.8784 649.217 94.974 649.056 94.9757C648.618 94.9805 648.496 95.5805 648.898 95.7563C649.045 95.8205 649.14 95.9648 649.142 96.1251C649.147 96.5639 649.747 96.6859 649.923 96.2837C649.987 96.1369 650.131 96.0413 650.291 96.0395C650.73 96.0347 650.852 95.4348 650.45 95.259C650.303 95.1948 650.208 95.0505 650.206 94.8902Z" fill="#9FBAFF"/>
<path opacity="0.7" d="M90.0183 786.751C90.0135 786.312 89.4135 786.19 89.2378 786.592C89.1736 786.739 89.0292 786.835 88.869 786.837C88.4301 786.841 88.3082 787.441 88.7103 787.617C88.8572 787.681 88.9527 787.826 88.9545 787.986C88.9593 788.425 89.5593 788.547 89.7351 788.145C89.7993 787.998 89.9436 787.902 90.1038 787.9C90.5427 787.896 90.6646 787.296 90.2625 787.12C90.1156 787.056 90.0201 786.911 90.0183 786.751Z" fill="#9FBAFF"/>
<path d="M289.464 726.493C289.459 726.054 288.859 725.932 288.683 726.335C288.619 726.481 288.475 726.577 288.314 726.579C287.875 726.584 287.753 727.183 288.156 727.359C288.302 727.423 288.398 727.568 288.4 727.728C288.405 728.167 289.005 728.289 289.18 727.887C289.245 727.74 289.389 727.644 289.549 727.643C289.988 727.638 290.11 727.038 289.708 726.862C289.561 726.798 289.465 726.653 289.464 726.493Z" fill="#9FBAFF"/>
<path opacity="0.4" d="M914.241 657.131C914.236 656.692 913.636 656.57 913.46 656.972C913.396 657.119 913.252 657.215 913.092 657.217C912.653 657.221 912.531 657.821 912.933 657.997C913.08 658.061 913.175 658.206 913.177 658.366C913.182 658.805 913.782 658.927 913.958 658.525C914.022 658.378 914.166 658.282 914.326 658.28C914.765 658.276 914.887 657.676 914.485 657.5C914.338 657.436 914.243 657.291 914.241 657.131Z" fill="#9FBAFF"/>
<path opacity="0.4" d="M914.241 1125.13C914.236 1124.69 913.636 1124.57 913.46 1124.97C913.396 1125.12 913.252 1125.21 913.092 1125.22C912.653 1125.22 912.531 1125.82 912.933 1126C913.08 1126.06 913.175 1126.21 913.177 1126.37C913.182 1126.8 913.782 1126.93 913.958 1126.52C914.022 1126.38 914.166 1126.28 914.326 1126.28C914.765 1126.28 914.887 1125.68 914.485 1125.5C914.338 1125.44 914.243 1125.29 914.241 1125.13Z" fill="#9FBAFF"/>
<path d="M1230.32 589.818C1230.31 589.379 1229.71 589.257 1229.54 589.659C1229.47 589.806 1229.33 589.902 1229.17 589.903C1228.73 589.908 1228.61 590.508 1229.01 590.684C1229.16 590.748 1229.25 590.892 1229.25 591.053C1229.26 591.492 1229.86 591.614 1230.03 591.211C1230.1 591.065 1230.24 590.969 1230.4 590.967C1230.84 590.962 1230.96 590.362 1230.56 590.187C1230.41 590.122 1230.32 589.978 1230.32 589.818Z" fill="#9FBAFF"/>
<path d="M278.05 515.378C278.045 514.939 277.445 514.817 277.269 515.219C277.205 515.366 277.06 515.462 276.9 515.463C276.461 515.468 276.339 516.068 276.742 516.244C276.888 516.308 276.984 516.452 276.986 516.613C276.991 517.052 277.591 517.173 277.766 516.771C277.831 516.624 277.975 516.529 278.135 516.527C278.574 516.522 278.696 515.922 278.294 515.747C278.147 515.682 278.051 515.538 278.05 515.378Z" fill="#9FBAFF"/>
<path d="M745.44 217.35C745.435 216.812 744.698 216.662 744.482 217.156L743.814 218.685C743.735 218.865 743.558 218.982 743.361 218.985L741.693 219.003C741.154 219.009 741.004 219.745 741.498 219.961L743.027 220.629C743.207 220.708 743.325 220.885 743.327 221.082L743.345 222.751C743.351 223.29 744.087 223.439 744.303 222.946L744.972 221.416C745.05 221.236 745.227 221.119 745.424 221.117L747.093 221.098C747.632 221.092 747.781 220.356 747.288 220.14L745.759 219.472C745.578 219.393 745.461 219.216 745.459 219.019L745.44 217.35Z" fill="#9FBAFF"/>
<path d="M140.433 317.003C140.427 316.464 139.69 316.314 139.475 316.808L138.806 318.337C138.727 318.517 138.55 318.635 138.353 318.637L136.685 318.655C136.146 318.661 135.996 319.398 136.49 319.613L138.019 320.282C138.199 320.36 138.317 320.538 138.319 320.734L138.337 322.403C138.343 322.942 139.08 323.091 139.295 322.598L139.964 321.069C140.042 320.888 140.22 320.771 140.416 320.769L142.085 320.751C142.624 320.745 142.774 320.008 142.28 319.792L140.751 319.124C140.57 319.045 140.453 318.868 140.451 318.671L140.433 317.003Z" fill="#9FBAFF"/>
<path d="M117.36 614.052C117.354 613.513 116.618 613.363 116.402 613.857L115.734 615.386C115.655 615.566 115.478 615.684 115.281 615.686L113.612 615.704C113.074 615.71 112.924 616.447 113.418 616.662L114.947 617.331C115.127 617.41 115.244 617.587 115.247 617.783L115.265 619.452C115.271 619.991 116.007 620.141 116.223 619.647L116.891 618.118C116.97 617.937 117.147 617.82 117.344 617.818L119.013 617.8C119.552 617.794 119.701 617.057 119.208 616.842L117.678 616.173C117.498 616.094 117.381 615.917 117.379 615.721L117.36 614.052Z" fill="#9FBAFF"/>
<path d="M1175.08 872.752C1175.07 872.213 1174.33 872.064 1174.12 872.557L1173.45 874.086C1173.37 874.267 1173.19 874.384 1173 874.386L1171.33 874.404C1170.79 874.41 1170.64 875.147 1171.13 875.363L1172.66 876.031C1172.84 876.11 1172.96 876.287 1172.96 876.484L1172.98 878.152C1172.99 878.691 1173.72 878.841 1173.94 878.347L1174.61 876.818C1174.69 876.638 1174.86 876.52 1175.06 876.518L1176.73 876.5C1177.27 876.494 1177.42 875.758 1176.92 875.542L1175.39 874.873C1175.21 874.795 1175.1 874.617 1175.09 874.421L1175.08 872.752Z" fill="#9FBAFF"/>
<path d="M807.325 666.12C807.319 665.581 806.582 665.431 806.366 665.925L806.131 666.464C806.052 666.645 805.875 666.762 805.678 666.764L805.089 666.77C804.551 666.776 804.401 667.513 804.895 667.729L805.434 667.964C805.614 668.043 805.732 668.22 805.734 668.417L805.74 669.006C805.746 669.544 806.483 669.694 806.698 669.2L806.934 668.661C807.013 668.481 807.19 668.363 807.387 668.361L807.975 668.355C808.514 668.349 808.664 667.612 808.17 667.397L807.631 667.161C807.45 667.082 807.333 666.905 807.331 666.708L807.325 666.12Z" fill="#9FBAFF"/>
<path d="M807.325 1134.12C807.319 1133.58 806.582 1133.43 806.366 1133.92L806.131 1134.46C806.052 1134.64 805.875 1134.76 805.678 1134.76L805.089 1134.77C804.551 1134.78 804.401 1135.51 804.895 1135.73L805.434 1135.96C805.614 1136.04 805.732 1136.22 805.734 1136.42L805.74 1137.01C805.746 1137.54 806.483 1137.69 806.698 1137.2L806.934 1136.66C807.013 1136.48 807.19 1136.36 807.387 1136.36L807.975 1136.35C808.514 1136.35 808.664 1135.61 808.17 1135.4L807.631 1135.16C807.45 1135.08 807.333 1134.91 807.331 1134.71L807.325 1134.12Z" fill="#9FBAFF"/>
<path d="M1011.18 890.047C1011.17 889.609 1010.57 889.487 1010.4 889.889C1010.33 890.036 1010.19 890.131 1010.03 890.133C1009.59 890.138 1009.47 890.738 1009.87 890.913C1010.02 890.978 1010.11 891.122 1010.11 891.282C1010.12 891.721 1010.72 891.843 1010.9 891.441C1010.96 891.294 1011.1 891.198 1011.26 891.197C1011.7 891.192 1011.82 890.592 1011.42 890.416C1011.28 890.352 1011.18 890.208 1011.18 890.047Z" fill="#9FBAFF"/>
<path d="M814.465 204.457C814.459 203.918 813.723 203.769 813.507 204.262L813.271 204.802C813.192 204.982 813.015 205.099 812.819 205.101L812.23 205.108C811.691 205.114 811.542 205.85 812.035 206.066L812.575 206.302C812.755 206.381 812.872 206.558 812.874 206.754L812.881 207.343C812.887 207.882 813.623 208.031 813.839 207.538L814.075 206.998C814.153 206.818 814.331 206.701 814.527 206.699L815.116 206.692C815.655 206.686 815.804 205.95 815.311 205.734L814.771 205.498C814.591 205.42 814.474 205.242 814.472 205.046L814.465 204.457Z" fill="#9FBAFF"/>
<path opacity="0.5" d="M1187.82 804.888C1187.84 804.324 1187.06 804.155 1186.86 804.679L1186.58 805.413C1186.52 805.594 1186.35 805.717 1186.15 805.726L1185.07 805.78C1184.56 805.805 1184.43 806.494 1184.89 806.729L1185.86 807.23C1186.04 807.32 1186.15 807.502 1186.14 807.698L1186.13 808.489C1186.12 809.053 1186.89 809.221 1187.09 808.698L1187.37 807.964C1187.44 807.782 1187.61 807.66 1187.8 807.65L1188.89 807.597C1189.39 807.572 1189.53 806.883 1189.07 806.648L1188.09 806.146C1187.91 806.057 1187.8 805.874 1187.81 805.678L1187.82 804.888Z" fill="#9FBAFF"/>
<path opacity="0.4" d="M918.127 720.367C918.121 719.828 917.385 719.679 917.169 720.172L916.933 720.712C916.855 720.892 916.677 721.009 916.481 721.012L915.892 721.018C915.353 721.024 915.204 721.76 915.697 721.976L916.237 722.212C916.417 722.291 916.534 722.468 916.536 722.665L916.543 723.253C916.549 723.792 917.285 723.942 917.501 723.448L917.737 722.909C917.816 722.728 917.993 722.611 918.189 722.609L918.778 722.602C919.317 722.596 919.467 721.86 918.973 721.644L918.433 721.408C918.253 721.33 918.136 721.153 918.134 720.956L918.127 720.367Z" fill="#9FBAFF"/>
<path d="M473.403 237.415C473.397 236.877 472.66 236.727 472.445 237.22L472.209 237.76C472.13 237.94 471.953 238.057 471.756 238.06L471.167 238.066C470.629 238.072 470.479 238.808 470.973 239.024L471.512 239.26C471.692 239.339 471.81 239.516 471.812 239.713L471.818 240.301C471.824 240.84 472.561 240.99 472.776 240.496L473.012 239.957C473.091 239.776 473.268 239.659 473.465 239.657L474.054 239.65C474.592 239.645 474.742 238.908 474.248 238.692L473.709 238.457C473.529 238.378 473.411 238.201 473.409 238.004L473.403 237.415Z" fill="#9FBAFF"/>
<path d="M192.471 108.789C192.465 108.25 191.729 108.1 191.513 108.594L191.277 109.133C191.198 109.314 191.021 109.431 190.824 109.433L190.236 109.44C189.697 109.446 189.547 110.182 190.041 110.398L190.58 110.634C190.761 110.712 190.878 110.889 190.88 111.086L190.887 111.675C190.893 112.214 191.629 112.363 191.845 111.87L192.081 111.33C192.159 111.15 192.337 111.033 192.533 111.03L193.122 111.024C193.661 111.018 193.81 110.282 193.317 110.066L192.777 109.83C192.597 109.751 192.48 109.574 192.477 109.377L192.471 108.789Z" fill="#9FBAFF"/>
</g>
</svg>
